HIERARCHY
ROOT Hips
{
    OFFSET 0.000000 0.000000 0.000000
    CHANNELS 6 Xposition Yposition Zposition Zrotation Xrotation Yrotation
    JOINT Spine
    {
        OFFSET -0.000000 14.517291 0.000000
        CHANNELS 3 Zrotation Xrotation Yrotation
        JOINT Spine1
        {
            OFFSET -0.000000 37.558300 0.000000
            CHANNELS 3 Zrotation Xrotation Yrotation
            JOINT Neck
            {
                OFFSET -0.000000 37.404057 3.400369
                CHANNELS 3 Zrotation Xrotation Yrotation
                JOINT Head
                {
                    OFFSET -0.000000 24.785618 -3.540803
                    CHANNELS 3 Zrotation Xrotation Yrotation
                    End Site
                    {
                        OFFSET -0.000000 35.408028 0.000000
                    }
                }
            }
            JOINT LeftShoulder
            {
                OFFSET 6.992933 33.973492 -0.192664
                CHANNELS 3 Zrotation Xrotation Yrotation
                JOINT LeftArm
                {
                    OFFSET 21.527611 0.000000 0.000000
                    CHANNELS 3 Zrotation Xrotation Yrotation
                    JOINT LeftForeArm
                    {
                        OFFSET 56.353916 0.000000 0.000000
                        CHANNELS 3 Zrotation Xrotation Yrotation
                        JOINT LeftHand
                        {
                            OFFSET 47.774071 0.000000 0.000000
                            CHANNELS 3 Zrotation Xrotation Yrotation
                            End Site
                            {
                                OFFSET 26.556021 0.000000 0.000000
                            }
                        }
                    }
                }
            }
            JOINT RightShoulder
            {
                OFFSET -7.065357 33.973492 -0.192664
                CHANNELS 3 Zrotation Xrotation Yrotation
                JOINT RightArm
                {
                    OFFSET -21.527611 0.000000 0.000000
                    CHANNELS 3 Zrotation Xrotation Yrotation
                    JOINT RightForeArm
                    {
                        OFFSET -56.353916 0.000000 0.000000
                        CHANNELS 3 Zrotation Xrotation Yrotation
                        JOINT RightHand
                        {
                            OFFSET -47.774071 0.000000 0.000000
                            CHANNELS 3 Zrotation Xrotation Yrotation
                            End Site
                            {
                                OFFSET -26.556021 0.000000 0.000000
                            }
                        }
                    }
                }
            }
        }
    }
    JOINT LeftUpLeg
    {
        OFFSET 17.704014 0.000000 0.000000
        CHANNELS 3 Zrotation Xrotation Yrotation
        JOINT LeftLeg
        {
            OFFSET -0.000000 -81.181816 0.000000
            CHANNELS 3 Zrotation Xrotation Yrotation
            JOINT LeftFoot
            {
                OFFSET -0.000000 -62.821102 0.000000
                CHANNELS 3 Zrotation Xrotation Yrotation
                JOINT LeftToeBase
                {
                    OFFSET -0.000000 -11.507608 26.556021
                    CHANNELS 3 Zrotation Xrotation Yrotation
                    End Site
                    {
                        OFFSET -0.000000 0.000000 7.081605
                    }
                }
            }
        }
    }
    JOINT RightUpLeg
    {
        OFFSET -17.704014 0.000000 0.000000
        CHANNELS 3 Zrotation Xrotation Yrotation
        JOINT RightLeg
        {
            OFFSET -0.000000 -81.181816 0.000000
            CHANNELS 3 Zrotation Xrotation Yrotation
            JOINT RightFoot
            {
                OFFSET -0.000000 -62.821102 0.000000
                CHANNELS 3 Zrotation Xrotation Yrotation
                JOINT RightToeBase
                {
                    OFFSET -0.000000 -11.507608 26.556021
                    CHANNELS 3 Zrotation Xrotation Yrotation
                    End Site
                    {
                        OFFSET -0.000000 0.000000 7.081605
                    }
                }
            }
        }
    }
}
MOTION
Frames:    10
Frame Time:    0.008333
2.069780    154.927231    -32.103477    0.000533    -3.999384    -28.464479    1.342447    0.342807    1.945110    -0.789468    0.877847    0.654599    14.343009    0.984298    12.971090    -7.406578    1.082212    10.510540    0.103626    10.561369    -11.796625    -39.221863    15.907190    -38.810520    31.622627    -44.768269    -48.488255    -16.981421    -30.303581    -24.102942    -3.791548    5.990106    -2.373833    36.145363    11.862336    73.797035    4.539933    -10.612572    100.032280    10.884443    -14.453724    15.449719    15.047238    -19.684061    0.809228    -14.570571    21.248438    7.178220    -5.094588    2.112189    21.853636    0.000000    0.000000    0.000000    -13.046294    4.353780    -4.313066    8.974500    31.082962    1.209880    1.605314    -27.390251    -19.886292    0.000000    0.000000    0.000000    
2.062679    154.931061    -32.087582    0.008137    -4.000751    -28.477806    1.344455    0.339898    1.949830    -0.795069    0.874724    0.656173    14.359795    0.986320    12.982711    -7.442121    1.070656    10.515129    0.090215    10.556471    -11.784658    -39.299652    15.804853    -38.778465    31.603676    -44.882160    -49.077194    -17.019121    -30.260483    -24.150152    -3.803604    5.980225    -2.353273    36.167259    11.850423    73.778999    4.539439    -10.599585    100.036964    10.843114    -14.446110    15.450577    15.045371    -19.675682    0.812843    -14.572620    21.249832    7.183367    -5.108695    2.106252    21.855844    0.000000    0.000000    0.000000    -13.056701    4.356716    -4.295982    8.976531    31.073013    1.218432    1.581102    -27.384533    -19.890438    0.000000    0.000000    0.000000    
2.051520    154.932938    -32.074043    0.012643    -3.995776    -28.491882    1.360374    0.330649    1.958792    -0.821313    0.875002    0.659376    14.376713    0.987102    12.981552    -7.463940    1.057317    10.507884    0.089233    10.554978    -11.762580    -39.353710    15.725031    -38.779503    31.665022    -44.999027    -49.581799    -17.032356    -30.225964    -24.118845    -3.809827    5.980113    -2.350564    36.160591    11.862132    73.785988    4.531356    -10.646643    100.043175    10.862377    -14.478882    15.474364    15.052679    -19.672129    0.814659    -14.580914    21.248459    7.213434    -5.104613    2.106945    21.829996    0.000000    0.000000    0.000000    -13.058996    4.354874    -4.259610    8.993894    31.062258    1.176947    1.582257    -27.385445    -19.878706    0.000000    0.000000    0.000000    
2.042372    154.935638    -32.061546    0.016678    -3.996366    -28.504761    1.360270    0.342477    1.965728    -0.824330    0.851275    0.661575    14.366597    0.987617    12.981858    -7.451767    1.044974    10.510507    0.077928    10.553354    -11.741953    -39.424217    15.644594    -38.769203    31.766609    -45.065788    -50.047817    -16.989523    -30.130224    -24.111889    -3.813210    5.987602    -2.343630    36.165447    11.856525    73.785652    4.517354    -10.661169    100.043755    10.824474    -14.484463    15.448683    15.051279    -19.666094    0.820596    -14.578055    21.255676    7.200967    -5.115522    2.088963    21.853838    0.000000    0.000000    0.000000    -13.061890    4.362791    -4.259848    8.988708    31.044861    1.173099    1.586371    -27.381615    -19.871199    0.000000    0.000000    0.000000    
2.032919    154.935974    -32.045452    0.019841    -3.996554    -28.518250    1.359861    0.343514    1.977376    -0.818111    0.843273    0.665405    14.354565    0.986563    12.982710    -7.449150    1.031810    10.512468    0.054030    10.541925    -11.719766    -39.497520    15.542155    -38.760754    31.850889    -45.102333    -50.502197    -17.032831    -29.987116    -24.132330    -3.827492    5.975402    -2.339621    36.179745    11.872722    73.768692    4.519014    -10.680729    100.052879    10.863358    -14.496872    15.497938    15.054496    -19.657997    0.845424    -14.581133    21.264225    7.158171    -5.121194    2.063592    21.904959    0.000000    0.000000    0.000000    -13.065778    4.374046    -4.268878    8.977729    31.027609    1.196001    1.560748    -27.374390    -19.867014    0.000000    0.000000    0.000000    
2.022655    154.940460    -32.030884    0.019193    -3.995275    -28.524654    1.358802    0.349650    1.986801    -0.809900    0.826145    0.668378    14.352011    0.967908    12.976154    -7.444993    1.052513    10.505455    0.046024    10.544573    -11.701374    -39.593155    15.407263    -38.756943    31.900215    -45.086575    -50.981709    -16.924477    -29.818098    -24.130573    -3.831886    5.976157    -2.343662    36.178322    11.871068    73.756020    4.524517    -10.690885    100.059837    10.866655    -14.512646    15.505948    15.058387    -19.653301    0.836421    -14.582901    21.271225    7.173889    -5.130250    2.050958    21.894527    0.000000    0.000000    0.000000    -13.059155    4.389059    -4.307478    8.936461    31.010376    1.243288    1.591489    -27.373911    -19.851154    0.000000    0.000000    0.000000    
2.005790    154.943329    -32.015182    0.015763    -3.994435    -28.527988    1.366637    0.343932    1.989507    -0.816005    0.822496    0.669244    14.361763    0.973544    12.969925    -7.456756    1.047470    10.496419    0.040685    10.552334    -11.677566    -39.653454    15.298355    -38.770329    32.013931    -45.132294    -51.378899    -17.004072    -29.682695    -24.135588    -3.829856    5.981964    -2.330702    36.175262    11.868624    73.745049    4.509592    -10.712337    100.053413    10.872861    -14.514966    15.509503    15.067267    -19.643997    0.844603    -14.592600    21.268526    7.192022    -5.128795    2.048097    21.884815    0.000000    0.000000    0.000000    -13.048381    4.409538    -4.309118    8.926256    30.983288    1.221563    1.613618    -27.374153    -19.829565    0.000000    0.000000    0.000000    
1.994433    154.950073    -31.993824    0.013578    -4.000620    -28.525343    1.366575    0.347302    1.990122    -0.805008    0.811553    0.669340    14.328373    0.966615    12.968523    -7.419292    1.056639    10.504345    0.025237    10.555575    -11.661479    -39.725952    15.192011    -38.760338    32.073112    -45.177086    -51.834694    -16.972719    -29.579390    -24.090837    -3.832882    5.981526    -2.330639    36.185238    11.857357    73.735039    4.517575    -10.682308    100.040657    10.845823    -14.498384    15.495832    15.060081    -19.630104    0.861488    -14.572469    21.280880    7.132019    -5.141991    2.030835    21.901535    0.000000    0.000000    0.000000    -13.046975    4.437195    -4.318427    8.914657    30.959127    1.222758    1.641189    -27.369995    -19.813971    0.000000    0.000000    0.000000    
1.983622    154.956543    -31.974739    0.015106    -4.001840    -28.522522    1.367058    0.346730    1.994585    -0.800923    0.796982    0.670760    14.323935    0.957916    12.961962    -7.411909    1.081169    10.499563    0.008067    10.576395    -11.653087    -39.778988    15.079198    -38.755238    32.095043    -45.250965    -52.322098    -16.957142    -29.516872    -24.034449    -3.830721    5.991385    -2.337867    36.189594    11.848484    73.732811    4.521802    -10.674019    100.027092    10.865644    -14.491680    15.491241    15.053825    -19.616533    0.851165    -14.567920    21.266493    7.141880    -5.134508    2.037443    21.878853    0.000000    0.000000    0.000000    -13.047978    4.454199    -4.294371    8.923204    30.938158    1.239940    1.625797    -27.356411    -19.861322    0.000000    0.000000    0.000000    
1.976402    154.965286    -31.953487    0.025518    -4.001154    -28.516176    1.365057    0.337967    1.998173    -0.798284    0.785176    0.671757    14.349882    0.936223    12.962732    -7.449004    1.132615    10.492311    -0.011206    10.593125    -11.650215    -39.831253    14.975779    -38.739742    32.106037    -45.341740    -52.803268    -16.970430    -29.463951    -24.068029    -3.830579    5.987460    -2.344564    36.204273    11.844710    73.722404    4.522064    -10.642883    100.010628    10.854643    -14.463696    15.464849    15.037141    -19.611713    0.846566    -14.558533    21.255703    7.186468    -5.118973    2.045785    21.838964    0.000000    0.000000    0.000000    -13.052407    4.464229    -4.295907    8.915151    30.919086    1.228975    1.657735    -27.342514    -19.859236    0.000000    0.000000    0.000000    
